<svg width="1080" height="342" viewBox="0 0 1080 342" fill="none" xmlns="http://www.w3.org/2000/svg">
<path d="M172.854 305.492V340.813H162.583V318.242L148.467 335.511H147.961L133.846 318.242V340.813H123.879V305.492H135.161L148.467 322.459L161.875 305.492H172.854Z" fill="#EAEAEA"/>
<path d="M218.919 332.961V340.839H181.151V305.518H218.363V313.395H191.32V319.202H213.632V326.725H191.32V332.987H218.945L218.919 332.961Z" fill="#EAEAEA"/>
<path d="M267.009 305.492V340.813H257.952L235.084 317.586V340.813H225.117V305.492H236.045L257.042 327.104V305.492H267.009Z" fill="#EAEAEA"/>
<path d="M311.607 313.723H296.884V340.813H286.563V313.723H271.942V305.492H311.582V313.723H311.607Z" fill="#EAEAEA"/>
<path d="M313.378 323.166C313.378 311.198 322.434 304.331 336.449 304.331C350.463 304.331 359.57 311.198 359.57 323.166C359.57 335.133 350.463 342 336.449 342C322.434 342 313.378 335.133 313.378 323.166ZM349.021 323.166C349.021 316.5 344.215 312.713 336.423 312.713C328.632 312.713 323.825 316.5 323.825 323.166C323.825 329.831 328.632 333.618 336.423 333.618C344.215 333.618 349.021 329.831 349.021 323.166Z" fill="#EAEAEA"/>
<path d="M395.846 340.813L386.486 329.654H376.064V340.813H365.793V305.492H390.635C399.691 305.492 406.723 309.482 406.723 317.561C406.723 323.469 402.979 327.205 397.414 328.821L407.836 340.839H395.846V340.813ZM389.876 322.206C393.569 322.206 396.25 321.196 396.25 317.763C396.25 314.329 393.569 313.319 389.876 313.319H376.013V322.206H389.876Z" fill="#EAEAEA"/>
<path d="M413.326 340.813V305.492H423.647V340.813H413.326Z" fill="#EAEAEA"/>
<path d="M461.213 334.072H441.785L438.446 340.839H427.619L445.934 305.518H457.216L475.531 340.839H464.552L461.213 334.072ZM457.646 326.751L451.524 314.228L445.352 326.751H457.646Z" fill="#EAEAEA"/>
<path d="M531.614 317.864C531.614 326.094 525.189 330.235 515.525 330.235H501.258V340.839H490.937V305.518H515.525C525.189 305.518 531.614 309.759 531.614 317.889V317.864ZM521.141 318.066C521.141 314.48 518.51 313.319 514.665 313.319H501.258V322.762H514.665C518.51 322.762 521.141 321.6 521.141 318.066Z" fill="#EAEAEA"/>
<path d="M567.055 340.813L557.695 329.654H547.273V340.813H537.002V305.492H561.844C570.9 305.492 577.933 309.482 577.933 317.561C577.933 323.469 574.189 327.205 568.623 328.821L579.046 340.839H567.055V340.813ZM561.085 322.206C564.778 322.206 567.46 321.196 567.46 317.763C567.46 314.329 564.778 313.319 561.085 313.319H547.222V322.206H561.085Z" fill="#EAEAEA"/>
<path d="M622.329 332.961V340.839H584.561V305.518H621.772V313.395H594.73V319.202H617.042V326.725H594.73V332.987H622.354L622.329 332.961Z" fill="#EAEAEA"/>
<path d="M667.534 329.78C667.534 337.052 660.805 342 647.955 342C638.848 342 631.208 339.526 625.643 335.082L631.056 328.72C635.255 332.255 641.074 334.224 648.157 334.224C654.228 334.224 657.264 333.113 657.264 330.79C657.264 328.467 654.43 327.761 647.145 327.155C636.621 326.246 627.059 323.923 627.059 316.046C627.059 308.169 635.255 304.331 646.487 304.331C654.076 304.331 661.058 306.149 665.915 309.582L660.704 315.995C656.758 313.218 652.002 312.107 646.487 312.057C642.339 312.057 637.33 312.713 637.33 315.238C637.33 317.611 641.428 317.914 647.752 318.419C659.338 319.378 667.534 321.651 667.534 329.78Z" fill="#EAEAEA"/>
<path d="M711.121 332.961V340.839H673.353V305.518H710.564V313.395H683.522V319.202H705.834V326.725H683.522V332.987H711.146L711.121 332.961Z" fill="#EAEAEA"/>
<path d="M759.21 305.492V340.813H750.154L727.286 317.586V340.813H717.319V305.492H728.247L749.243 327.104V305.492H759.21Z" fill="#EAEAEA"/>
<path d="M798.926 328.215L807.78 332.759C804.492 337.96 797.358 342 787.796 342C774.439 342 765.433 335.082 765.433 323.166C765.433 311.249 774.439 304.331 788.2 304.331C797.358 304.331 804.441 308.472 807.628 313.521L798.724 318.066C796.397 314.43 792.805 312.713 788.049 312.713C780.763 312.713 775.906 316.399 775.906 323.166C775.906 329.932 780.763 333.618 788.049 333.618C792.805 333.618 796.447 332.002 798.926 328.215Z" fill="#EAEAEA"/>
<path d="M812.89 340.813V305.492H823.211V340.813H812.89Z" fill="#EAEAEA"/>
<path d="M860.777 334.072H841.349L838.01 340.839H827.183L845.498 305.518H856.78L875.095 340.839H864.116L860.777 334.072ZM857.185 326.751L851.063 314.228L844.891 326.751H857.185Z" fill="#EAEAEA"/>
<path d="M913.117 332.558V340.839H878.991V305.518H889.312V332.558H913.142H913.117Z" fill="#EAEAEA"/>
<path d="M56.6144 163.678H0V264.92H56.6144C95.8752 264.92 120.261 245.53 120.261 214.299C120.261 183.068 95.8752 163.678 56.6144 163.678ZM30.2045 187.789H54.3124C76.6749 187.789 89.4751 197.459 89.4751 214.299C89.4751 231.139 76.6496 240.809 54.3124 240.809H30.2045V187.789Z" fill="#EAEAEA"/>
<path d="M158.359 224.777H221.702V202.534H158.359V186.931H235.21V163.678H128.584V264.92H236.804V241.667H158.359V224.777Z" fill="#EAEAEA"/>
<path d="M275.154 163.678H244.95V264.92H342.823V240.531H275.154V163.678Z" fill="#EAEAEA"/>
<path d="M429.162 163.678H372.547V264.92H429.162C468.422 264.92 492.809 245.53 492.809 214.299C492.809 183.068 468.422 163.678 429.162 163.678ZM402.752 187.789H426.86C449.222 187.789 462.022 197.459 462.022 214.299C462.022 231.139 449.197 240.809 426.86 240.809H402.752V187.789Z" fill="#EAEAEA"/>
<path d="M531.336 163.678H501.131V264.92H531.336V163.678Z" fill="#EAEAEA"/>
<path d="M636.166 224.373L577.326 163.805L577.199 163.678H545.527V264.92H574.72V199.63L638.873 264.794L638.999 264.92H665.359V163.678H636.166V224.373Z" fill="#EAEAEA"/>
<path d="M709.198 224.777H772.542V202.534H709.198V186.931H786.05V163.678H679.424V264.92H787.619V241.667H709.198V224.777Z" fill="#EAEAEA"/>
<path d="M912.889 198.393C912.889 176.984 895.206 163.678 866.773 163.678H795.79V264.92H825.842V233.235H854.782L881.217 264.769L881.344 264.92H916.582L886.808 230.584C903.63 225.484 912.889 214.072 912.889 198.393ZM825.716 186.805H864.622C876.664 186.805 882.28 190.668 882.28 198.974C882.28 207.28 876.664 211.143 864.622 211.143H825.716V186.805Z" fill="#EAEAEA"/>
<path d="M981.14 160.371C961.282 160.371 944.712 165.244 933.177 174.459C921.414 183.876 915.191 197.661 915.191 214.299C915.191 230.937 921.414 244.697 933.177 254.139C944.712 263.355 961.282 268.227 981.14 268.227C1001 268.227 1017.59 263.355 1029.15 254.139C1040.97 244.722 1047.22 230.937 1047.22 214.299C1047.22 181.048 1021.89 160.371 981.115 160.371H981.14ZM981.14 185.088C1003.25 185.088 1016.45 196.02 1016.45 214.324C1016.45 232.629 1003.25 243.561 981.14 243.561C959.03 243.561 945.825 232.629 945.825 214.324C945.825 196.02 959.03 185.088 981.14 185.088Z" fill="#EAEAEA"/>
<path d="M73.4116 73.0405L114.721 123.56L114.848 123.737H116.796L158.207 73.0405V139.542H189.752V33.2255H156.335L116.568 83.5433L77.2314 33.4022L77.1049 33.2255H42.8023V139.542H73.4116V73.0405Z" fill="#EAEAEA"/>
<path d="M234.502 119.369H291.876L301.842 139.542H335.614L280.669 33.4779L280.542 33.2255H246.341L191.599 138.885L191.27 139.542H224.586L234.553 119.369H234.502ZM245.506 96.6215L263.189 60.745L280.72 96.6215H245.506Z" fill="#EAEAEA"/>
<path d="M450.563 122.146L450.715 122.273C467.689 135.831 490.81 143.001 517.524 143.001C554.356 143.001 576.364 129.216 576.364 106.114C576.364 81.7003 552.611 74.732 516.967 71.7781L516.411 71.7276C498.273 70.2885 486.307 69.3291 486.307 62.7396C486.307 54.3575 506.874 53.701 513.173 53.701C530.602 53.8525 544.389 57.6649 555.317 65.3653L555.671 65.6177L571.103 46.6318V58.7H614.714V139.567H646.386V58.7H690.302V33.2507H571.103V45.3442C556.759 35.321 536.218 29.7666 513.173 29.7666C477.15 29.7666 454.787 43.3244 454.787 65.1633C454.787 90.3096 487.016 96.3185 515.095 98.7422C537.913 100.636 544.87 103.06 544.87 109.144C544.87 115.734 536.142 118.94 518.156 118.94C497.666 118.94 480.135 113.31 467.461 102.63L467.107 102.353L450.588 121.768V115.178H368.196V97.4041H434.727V74.0756H368.196V57.6649H448.919V33.276H336.98V139.592H450.588V122.197L450.563 122.146Z" fill="#EAEAEA"/>
<path d="M726.451 106.266H756.883L784.659 139.39L784.785 139.542H821.744L790.477 103.489C808.16 98.1363 817.899 86.1438 817.899 69.6826C817.899 47.2125 799.331 33.2507 769.481 33.2507H694.956V139.567H726.476V106.291L726.451 106.266ZM726.299 57.4629H767.204C779.878 57.4629 785.772 61.5277 785.772 70.2633C785.772 78.9988 779.878 83.0636 767.204 83.0636H726.299V57.4629Z" fill="#EAEAEA"/>
<path d="M859.361 33.2255H827.689V139.542H859.361V33.2255Z" fill="#EAEAEA"/>
<path d="M904.288 119.369H961.661L971.628 139.542H1005.4L950.455 33.4779L950.328 33.2255H916.127L861.384 138.885L861.055 139.542H894.372L904.339 119.369H904.288ZM915.292 96.6215L932.975 60.745L950.505 96.6215H915.292Z" fill="#EAEAEA"/>
<path d="M848.028 0L826.955 22.4196L854.858 22.4954H854.984L876.917 0H848.028Z" fill="#EAEAEA"/>
<path d="M1075.19 147.697C1078.41 150.903 1080 154.741 1080 159.26C1080 163.779 1078.36 167.819 1075.09 171C1071.91 174.08 1068.09 175.62 1063.61 175.62C1059.13 175.62 1055.11 174.055 1051.95 170.899C1048.78 167.743 1047.22 163.88 1047.22 159.26C1047.22 154.64 1048.91 150.499 1052.33 147.343C1055.54 144.389 1059.28 142.9 1063.61 142.9C1067.93 142.9 1071.98 144.49 1075.19 147.697ZM1063.61 146.308C1060.02 146.308 1056.93 147.621 1054.4 150.221C1051.9 152.771 1050.66 155.776 1050.66 159.285C1050.66 162.795 1051.92 165.976 1054.45 168.526C1056.98 171.051 1060.02 172.313 1063.58 172.313C1067.15 172.313 1070.18 171.051 1072.71 168.501C1075.24 165.951 1076.51 162.87 1076.51 159.285C1076.51 155.7 1075.24 152.797 1072.74 150.221C1070.21 147.621 1067.15 146.308 1063.61 146.308ZM1061.28 161.835V167.97H1056.73V150.625C1057.81 150.625 1059.41 150.625 1061.56 150.625C1063.71 150.625 1064.9 150.625 1065.15 150.651C1066.52 150.752 1067.66 151.055 1068.57 151.534C1070.11 152.393 1070.89 153.756 1070.89 155.675C1070.89 157.139 1070.49 158.174 1069.68 158.831C1068.87 159.487 1067.86 159.866 1066.67 159.992C1067.76 160.219 1068.59 160.548 1069.12 161.002C1070.13 161.81 1070.67 163.123 1070.67 164.89V166.43C1070.67 166.607 1070.67 166.758 1070.69 166.935C1070.72 167.112 1070.74 167.263 1070.82 167.44L1070.97 167.92H1066.64C1066.49 167.364 1066.42 166.582 1066.36 165.521C1066.31 164.461 1066.24 163.779 1066.09 163.401C1065.86 162.795 1065.43 162.365 1064.82 162.138C1064.49 161.987 1063.96 161.911 1063.28 161.86L1062.27 161.785H1061.31L1061.28 161.835ZM1063.05 158.705C1064.11 158.705 1064.95 158.503 1065.53 158.073C1066.14 157.644 1066.42 156.963 1066.42 156.003C1066.42 155.044 1065.96 154.387 1065.02 154.034C1064.39 153.781 1063.53 153.68 1062.39 153.68H1061.28V158.705H1063.05Z" fill="#EAEAEA"/>
<path d="M421.851 293.424L414.135 301.604L424.33 301.655H424.381L432.4 293.424H421.851Z" fill="#EAEAEA"/>
</svg>
