<svg width="1081" height="332" viewBox="0 0 1081 332" fill="none" xmlns="http://www.w3.org/2000/svg">
<path d="M1076.27 156.046C1079.37 159.212 1080.89 162.98 1080.85 167.399C1080.8 171.819 1079.16 175.754 1075.95 178.834C1072.81 181.816 1069.07 183.286 1064.71 183.243C1060.34 183.201 1056.43 181.632 1053.38 178.516C1050.33 175.4 1048.83 171.607 1048.88 167.089C1048.92 162.571 1050.61 158.538 1053.97 155.484C1057.13 152.625 1060.8 151.204 1065.02 151.245C1069.24 151.286 1073.17 152.879 1076.27 156.046ZM1064.99 154.578C1061.48 154.544 1058.46 155.799 1055.97 158.318C1053.5 160.788 1052.27 163.714 1052.23 167.146C1052.2 170.578 1053.4 173.701 1055.84 176.219C1058.29 178.712 1061.24 179.975 1064.71 180.009C1068.19 180.042 1071.16 178.837 1073.65 176.367C1076.15 173.897 1077.41 170.897 1077.44 167.391C1077.48 163.885 1076.27 161.033 1073.85 158.491C1071.41 155.924 1068.44 154.611 1064.99 154.578ZM1062.57 169.74L1062.51 175.74L1058.07 175.697L1058.23 158.735C1059.3 158.745 1060.85 158.76 1062.95 158.781C1065.04 158.801 1066.2 158.812 1066.45 158.839C1067.78 158.951 1068.89 159.258 1069.77 159.736C1071.27 160.59 1072.02 161.931 1072 163.807C1071.99 165.239 1071.58 166.247 1070.79 166.882C1069.99 167.516 1069 167.877 1067.84 167.989C1068.9 168.222 1069.71 168.55 1070.22 169C1071.2 169.8 1071.71 171.088 1071.69 172.817L1071.68 174.323C1071.67 174.496 1071.67 174.644 1071.7 174.817C1071.72 174.99 1071.74 175.138 1071.81 175.312L1071.96 175.782L1067.74 175.742C1067.6 175.197 1067.53 174.431 1067.49 173.393C1067.45 172.356 1067.38 171.689 1067.24 171.317C1067.02 170.722 1066.61 170.298 1066.02 170.07C1065.7 169.919 1065.18 169.84 1064.52 169.784L1063.53 169.7L1062.59 169.691L1062.57 169.74ZM1064.32 166.696C1065.36 166.706 1066.18 166.516 1066.75 166.102C1067.34 165.688 1067.62 165.024 1067.63 164.086C1067.64 163.147 1067.2 162.501 1066.29 162.147C1065.68 161.894 1064.84 161.787 1063.73 161.776L1062.65 161.765L1062.6 166.679L1064.32 166.696Z" fill="#69E4FF"/>
<path d="M57.6019 154.771L0.92395 154.221L8.52028e-06 249.461L56.678 250.01C95.9808 250.392 120.57 232.381 120.855 203.009C121.14 173.636 96.9048 155.152 57.6019 154.771ZM30.9406 177.194L55.0814 177.428C77.4556 177.645 90.2095 186.86 90.0558 202.7C89.9021 218.541 76.9816 227.506 54.5977 227.289L30.4569 227.055L30.9406 177.194Z" fill="#69E4FF"/>
<path d="M158.888 213.238L222.303 213.853L222.506 192.917L159.091 192.302L159.233 177.64L236.169 178.386L236.382 156.505L129.646 155.47L128.722 250.7L237.04 251.75L237.252 229.869L158.734 229.108L158.888 213.238Z" fill="#69E4FF"/>
<path d="M276.374 156.893L246.137 156.6L245.213 251.83L343.184 252.78L343.407 229.828L275.673 229.17L276.374 156.893Z" fill="#69E4FF"/>
<path d="M430.527 158.389L373.849 157.839L372.925 253.078L429.603 253.628C468.906 254.009 493.496 235.999 493.781 206.627C494.066 177.254 469.83 158.77 430.527 158.389ZM403.866 180.812L428.007 181.046C450.381 181.263 463.135 190.477 462.981 206.318C462.828 222.159 449.907 231.124 427.523 230.907L403.382 230.672L403.866 180.812Z" fill="#69E4FF"/>
<path d="M532.808 159.381L502.571 159.088L501.647 254.327L531.884 254.62L532.808 159.381Z" fill="#69E4FF"/>
<path d="M637.204 217.488L578.846 159.954L578.711 159.826L547.019 159.519L546.095 254.749L575.322 255.032L575.918 193.618L639.553 255.529L639.678 255.656L666.061 255.912L666.985 160.683L637.758 160.399L637.204 217.488Z" fill="#69E4FF"/>
<path d="M710.302 218.587L773.717 219.202L773.92 198.266L710.505 197.651L710.647 182.989L787.584 183.736L787.796 161.855L681.06 160.819L680.136 256.049L788.454 257.1L788.666 235.219L710.148 234.457L710.302 218.587Z" fill="#69E4FF"/>
<path d="M914.463 195.733C914.659 175.596 897.085 162.915 868.605 162.639L797.551 161.949L796.627 257.189L826.718 257.481L827.007 227.679L855.973 227.96L882.155 257.872L882.29 258.03L917.564 258.372L888.068 225.787C904.965 221.148 914.33 210.502 914.473 195.752L914.463 195.733ZM827.286 183.984L866.239 184.362C878.295 184.479 883.87 188.168 883.794 195.971C883.719 203.775 878.073 207.364 866.017 207.247L827.064 206.869L827.286 183.984Z" fill="#69E4FF"/>
<path d="M983.127 160.642C963.257 160.449 946.614 164.877 934.988 173.435C923.118 182.186 916.761 195.073 916.609 210.719C916.457 226.365 922.563 239.382 934.261 248.352C945.719 257.135 962.273 261.884 982.143 262.077C1002.01 262.27 1018.68 257.843 1030.35 249.284C1042.27 240.534 1048.64 227.637 1048.8 212.001C1049.1 180.719 1023.93 161.038 983.127 160.642ZM982.901 183.867C1005.04 184.082 1018.15 194.488 1017.99 211.702C1017.82 228.917 1004.5 239.066 982.368 238.852C960.237 238.637 947.106 228.231 947.273 211.016C947.44 193.802 960.76 183.652 982.901 183.867Z" fill="#69E4FF"/>
<path d="M160.159 136.309C186.357 136.563 209.459 126.781 220.448 110.773L220.714 110.386L193.614 96.989L193.388 97.3084C186.272 107.314 175.722 112.102 161.142 111.961C138.72 111.743 125.448 100.81 125.624 82.7184C125.799 64.6272 139.29 53.953 161.703 54.1704C175.894 54.3081 186.446 59.3989 193.048 69.2937L193.268 69.6174L220.34 56.9607L220.778 56.7506L220.52 56.3584C212.207 43.7189 192.564 30.1121 162.395 29.8195C120.19 29.41 93.784 49.5558 93.4653 82.4064C93.1466 115.257 118.701 135.907 160.159 136.309Z" fill="#69E4FF"/>
<path d="M339.147 45.457C327.083 36.2302 309.677 31.2483 288.797 31.0457C267.918 30.8432 250.457 35.4869 238.255 44.4783C225.788 53.6619 219.114 67.1985 218.955 83.6238C218.795 100.049 225.206 113.713 237.492 123.136C249.518 132.363 266.904 137.345 287.764 137.547C308.624 137.749 326.143 133.106 338.384 124.115C350.899 114.922 357.603 101.386 357.762 84.9704C357.921 68.5549 351.482 54.8813 339.147 45.457ZM288.561 55.4011C311.828 55.6268 325.614 66.5656 325.438 84.6568C325.263 102.748 311.268 113.417 288 113.192C264.733 112.966 250.948 102.027 251.123 83.9359C251.299 65.8447 265.294 55.1754 288.561 55.4011Z" fill="#69E4FF"/>
<path d="M492.91 86.2815C493.209 55.4476 467.759 36.0361 426.486 35.6357L366.983 35.0584L366.013 135.052L425.516 135.629C466.789 136.03 492.611 117.125 492.91 86.2815ZM423.848 59.4027C447.367 59.6308 460.767 69.309 460.606 85.9681C460.444 102.627 446.859 112.044 423.339 111.815L397.956 111.569L398.464 59.1564L423.848 59.4027Z" fill="#69E4FF"/>
<path d="M533.853 36.6773L502.141 36.3696L501.171 136.363L532.883 136.671L533.853 36.6773Z" fill="#69E4FF"/>
<path d="M609.218 100.3L644.259 100.64L644.179 108.96C637.259 114.719 627.633 117.344 613.888 117.21C588.272 116.962 574.261 106.265 574.447 87.0725C574.633 67.8805 588.683 57.6014 614.008 57.8471C627.869 57.9816 637.244 61.239 646.381 69.1027L646.65 69.3391L670.044 53.4802L669.65 53.1354C661.854 46.1909 644.192 34.5032 613.49 34.2054C569.227 33.776 542.612 53.4229 542.288 86.7703C541.965 120.118 568.193 140.277 612.456 140.707C639.383 140.968 661.037 133.325 673.435 119.191L673.534 119.075L673.914 79.8338L609.432 79.2083L609.227 100.31L609.218 100.3Z" fill="#69E4FF"/>
<path d="M816.233 89.4182C816.393 72.9929 809.953 59.3291 797.619 49.9048C785.554 40.678 768.148 35.696 747.269 35.4935C726.389 35.2909 708.929 39.9346 696.726 48.926C684.26 58.1097 677.586 71.6463 677.426 88.0716C677.267 104.497 683.677 118.16 695.963 127.584C707.989 136.811 725.376 141.792 746.236 141.995C767.096 142.197 784.614 137.554 796.856 128.563C809.371 119.37 816.074 105.834 816.233 89.4182ZM747.033 59.8489C770.3 60.0746 784.085 71.0134 783.91 89.1046C783.734 107.196 769.739 117.865 746.472 117.639C723.205 117.414 709.419 106.475 709.595 88.3836C709.77 70.2924 723.765 59.6232 747.033 59.8489Z" fill="#69E4FF"/>
<path d="M880.555 101.656C903.368 103.66 910.315 106.017 910.259 111.726C910.199 117.922 901.424 120.848 883.428 120.673C862.908 120.474 845.409 115.004 832.82 104.837L832.483 104.561L815.55 122.898L815.906 123.175C832.779 136.092 855.845 143.058 882.606 143.318C919.492 143.676 941.633 130.922 941.844 109.188C942.067 86.235 918.358 79.4479 882.684 76.3251L882.121 76.2806C863.992 74.7407 852.013 73.7282 852.073 67.5322C852.15 59.641 872.734 59.2269 879.043 59.2881C896.495 59.6035 910.253 63.3322 921.123 70.667L921.46 70.8944L937.764 52.4043L937.378 52.1375C923.095 42.4507 902.452 36.9892 879.262 36.7642C843.211 36.4145 820.684 48.9496 820.485 69.4764C820.255 93.1206 852.466 99.084 880.555 101.646L880.555 101.656Z" fill="#69E4FF"/>
<path d="M296.389 7.89866e-08L274.572 21.3985L303.187 21.754L303.333 21.7554L326.024 0.287495L296.389 7.89866e-08Z" fill="#69E4FF"/>
<path d="M754.691 331.308L751.269 324.182L730.964 323.985L727.405 331.044L716.089 330.934L735.591 294.07L747.383 294.184L766.166 331.42L754.691 331.308ZM734.74 316.347L747.589 316.471L741.318 303.283L734.74 316.347Z" fill="#69E4FF"/>
<path d="M713.184 280.725L700.565 289.496L692.897 289.421L700.228 280.6L713.184 280.725ZM703.972 330.817L693.184 330.712L693.544 293.662L704.331 293.767L703.972 330.817Z" fill="#69E4FF"/>
<path d="M658.737 306.875C666.381 307.585 671.727 308.907 674.776 310.842C677.824 312.777 679.332 315.492 679.298 318.985C679.28 320.855 678.822 322.58 677.925 324.159C677.029 325.738 675.711 327.084 673.973 328.196C672.234 329.309 670.058 330.152 667.443 330.727C664.864 331.337 661.952 331.626 658.709 331.595C656.488 331.573 653.987 331.337 651.206 330.887C648.425 330.472 645.63 329.668 642.821 328.477C640.012 327.285 637.558 325.832 635.46 324.118L641.182 317.503C643.35 319.36 645.963 320.814 649.02 321.867C652.077 322.885 655.404 323.411 659 323.446C665.345 323.508 668.53 322.339 668.553 319.939C668.564 318.775 667.779 317.92 666.198 317.376C664.652 316.831 661.924 316.381 658.014 316.026C650.688 315.32 645.359 313.997 642.029 312.06C638.733 310.122 637.102 307.495 637.134 304.178C637.148 302.767 637.496 301.341 638.18 299.901C638.864 298.425 640.129 297.043 641.975 295.756C643.821 294.468 646.157 293.538 648.983 292.965C651.809 292.357 654.668 292.068 657.559 292.096C661.542 292.134 665.292 292.647 668.808 293.634C672.324 294.621 675.325 296.009 677.811 297.797L672.299 304.466C668.518 301.748 663.578 300.323 657.48 300.194C654.484 300.165 652.136 300.442 650.438 301.025C648.741 301.573 647.887 302.377 647.877 303.435C647.871 304.035 648.113 304.531 648.603 304.924C649.092 305.317 649.9 305.66 651.025 305.954C652.151 306.212 654.722 306.519 658.737 306.875Z" fill="#69E4FF"/>
<path d="M595.181 321.503L624.053 321.784L623.973 330.04L584.472 329.657L584.832 292.607L623.751 292.985L623.671 301.242L595.38 300.967L595.321 307.054L618.641 307.28L618.565 315.167L595.245 314.94L595.181 321.503Z" fill="#69E4FF"/>
<path d="M570.754 329.524L558.222 329.402L548.552 317.61L537.659 317.505L537.546 329.202L526.811 329.098L527.171 292.048L553.134 292.3C555.496 292.323 557.697 292.609 559.737 293.158C561.776 293.707 563.549 294.518 565.054 295.592C566.595 296.665 567.781 298.018 568.611 299.649C569.442 301.245 569.847 303.066 569.827 305.113C569.798 308.112 568.893 310.609 567.11 312.603C565.364 314.562 562.988 315.968 559.983 316.821L570.754 329.524ZM537.682 309.671L552.171 309.811C556.613 309.855 558.849 308.324 558.879 305.218C558.909 302.113 556.703 300.539 552.262 300.496L537.773 300.356L537.682 309.671Z" fill="#69E4FF"/>
<path d="M502.125 309.538C504.345 309.7 506.243 310.213 507.822 311.075C509.4 311.902 510.588 312.972 511.387 314.286C512.22 315.564 512.629 317.068 512.612 318.797C512.581 321.973 511.217 324.447 508.521 326.221C505.824 327.994 502.202 328.859 497.654 328.815L469.047 328.537L469.406 291.488L495.899 291.745C500.446 291.789 504.051 292.688 506.714 294.443C509.376 296.198 510.693 298.54 510.665 301.469C510.652 302.774 510.322 304.059 509.675 305.323C509.029 306.587 508.014 307.583 506.632 308.311C505.285 309.039 503.783 309.448 502.125 309.538ZM480.015 299.107L479.944 306.358L493.957 306.494C495.896 306.513 497.38 306.263 498.407 305.743C499.435 305.189 499.955 304.241 499.968 302.9C499.974 302.265 499.804 301.646 499.457 301.042C499.111 300.439 498.463 299.992 497.514 299.7C496.6 299.409 495.438 299.257 494.028 299.243L480.015 299.107ZM495.453 321.277C497.428 321.296 498.929 321.011 499.957 320.421C501.02 319.831 501.559 318.831 501.573 317.419C501.586 316.008 501.085 315.015 500.068 314.44C499.051 313.831 497.538 313.516 495.529 313.497L479.877 313.345L479.801 321.125L495.453 321.277Z" fill="#69E4FF"/>
<path d="M441.336 291.215L452.811 291.327L452.451 328.376L441.717 328.272L441.946 304.613L427.017 322.572L426.488 322.567L411.911 304.322L411.681 327.981L401.264 327.88L401.623 290.83L413.415 290.944L427.15 308.863L441.336 291.215Z" fill="#69E4FF"/>
<path d="M358.03 319.203L386.902 319.483L386.822 327.74L347.321 327.356L347.68 290.307L386.599 290.684L386.519 298.941L358.229 298.667L358.17 304.753L381.49 304.98L381.413 312.866L358.093 312.64L358.03 319.203Z" fill="#69E4FF"/>
<path d="M319.61 290.034L331.085 290.146L330.725 327.195L319.991 327.091L320.22 303.432L305.291 321.391L304.762 321.386L290.185 303.141L289.955 326.8L279.538 326.699L279.897 289.649L291.689 289.764L305.424 307.682L319.61 290.034Z" fill="#69E4FF"/>
</svg>
