<svg width="1080" height="344" viewBox="0 0 1080 344" fill="none" xmlns="http://www.w3.org/2000/svg">
<path d="M126.172 334.909V342.832H88.2317V307.304H125.613V315.227H98.4221V321.068H120.836V328.636H98.4221V334.934H126.147L126.172 334.909Z" fill="#D9D9D9"/>
<path d="M174.481 307.279V342.806H165.384L142.411 319.443V342.806H132.398V307.279H143.377L164.469 329.017V307.279H174.481Z" fill="#D9D9D9"/>
<path d="M219.283 315.558H204.493V342.806H194.125V315.558H179.437V307.279H219.258V315.558H219.283Z" fill="#D9D9D9"/>
<path d="M254.378 342.832L244.975 331.607H234.505V342.832H224.188V307.304H249.143C258.24 307.304 265.305 311.317 265.305 319.443C265.305 325.385 261.544 329.144 255.953 330.769L266.423 342.857H254.378V342.832ZM248.38 324.09C252.091 324.09 254.784 323.075 254.784 319.621C254.784 316.167 252.091 315.151 248.38 315.151H234.454V324.09H248.38Z" fill="#D9D9D9"/>
<path d="M309.904 334.909V342.832H271.963V307.304H309.345V315.227H282.153V321.068H304.567V328.636H282.153V334.934H309.878L309.904 334.909Z" fill="#D9D9D9"/>
<path d="M358.213 307.279V342.806H349.115L326.142 319.443V342.806H316.13V307.279H327.108L348.2 329.017V307.279H358.213Z" fill="#D9D9D9"/>
<path d="M395.899 336.026H376.382L373.028 342.832H362.152L380.55 307.304H391.884L410.283 342.832H399.254L395.899 336.026ZM392.291 328.661L386.141 316.066L379.94 328.661H392.291Z" fill="#D9D9D9"/>
<path d="M463.344 307.279V342.806H453.026V320.103L438.846 337.473H438.338L424.158 320.103V342.806H414.145V307.279H425.479L438.846 324.344L452.315 307.279H463.344Z" fill="#D9D9D9"/>
<path d="M471.679 342.832V307.304H482.047V342.832H471.679Z" fill="#D9D9D9"/>
<path d="M528.348 334.909V342.832H490.408V307.304H527.789V315.227H500.598V321.068H523.012V328.636H500.598V334.934H528.323L528.348 334.909Z" fill="#D9D9D9"/>
<path d="M576.657 307.279V342.806H567.56L544.587 319.443V342.806H534.574V307.279H545.553L566.645 329.017V307.279H576.657Z" fill="#D9D9D9"/>
<path d="M621.459 315.558H606.669V342.806H596.301V315.558H581.613V307.279H621.434V315.558H621.459Z" fill="#D9D9D9"/>
<path d="M623.238 325.055C623.238 313.018 632.336 306.111 646.414 306.111C660.493 306.111 669.641 313.018 669.641 325.055C669.641 337.093 660.493 344 646.414 344C632.336 344 623.238 337.093 623.238 325.055ZM659.044 325.055C659.044 318.351 654.216 314.542 646.389 314.542C638.562 314.542 633.734 318.351 633.734 325.055C633.734 331.76 638.562 335.569 646.389 335.569C654.216 335.569 659.044 331.76 659.044 325.055Z" fill="#D9D9D9"/>
<path d="M694.342 307.279L706.082 332.877L717.772 307.279H728.852L711.419 342.806H700.543L683.161 307.279H694.342Z" fill="#D9D9D9"/>
<path d="M732.74 342.832V307.304H743.108V342.832H732.74Z" fill="#D9D9D9"/>
<path d="M781.659 342.832L772.256 331.607H761.786V342.832H751.469V307.304H776.424C785.521 307.304 792.586 311.317 792.586 319.443C792.586 325.385 788.825 329.144 783.234 330.769L793.704 342.857H781.659V342.832ZM775.687 324.09C779.397 324.09 782.091 323.075 782.091 319.621C782.091 316.167 779.397 315.151 775.687 315.151H761.761V324.09H775.687Z" fill="#D9D9D9"/>
<path d="M834.847 315.558H820.057V342.806H809.689V315.558H795V307.279H834.821V315.558H834.847Z" fill="#D9D9D9"/>
<path d="M880.462 307.279V326.071C880.462 336.889 873.092 344 859.827 344C846.562 344 839.142 336.889 839.142 326.071V307.279H849.51V325.259C849.51 331.455 852.966 335.467 859.827 335.467C866.689 335.467 870.094 331.455 870.094 325.259V307.279H880.462Z" fill="#D9D9D9"/>
<path d="M915.353 336.026H895.837L892.482 342.832H881.606L900.004 307.304H911.338L929.737 342.832H918.708L915.353 336.026ZM911.745 328.661L905.595 316.066L899.394 328.661H911.745Z" fill="#D9D9D9"/>
<path d="M967.931 334.502V342.832H933.65V307.304H944.018V334.502H967.957H967.931Z" fill="#D9D9D9"/>
<path d="M276.41 164.635H246.068V266.495H344.363V241.938H276.41V164.635Z" fill="#FFD204"/>
<path d="M56.8729 164.635H0V266.469H56.8729C96.3129 266.469 120.81 246.966 120.81 215.552C120.81 184.139 96.3129 164.635 56.8729 164.635ZM30.3169 188.913H54.5349C76.9995 188.913 89.8581 198.639 89.8581 215.578C89.8581 232.516 76.974 242.242 54.5349 242.242H30.3169V188.913Z" fill="#FFD204"/>
<path d="M159.056 226.117H222.714V203.718H159.056V188.05H236.259V164.635H129.171V266.495H237.86V243.08H159.056V226.117Z" fill="#FFD204"/>
<path d="M528.679 129.082C539.504 138.732 555.413 143.837 574.65 143.837C613.454 143.837 636.63 123.673 636.63 89.9234V33.4196H604.814V87.4855C604.814 106.557 593.811 117.477 574.65 117.477C555.489 117.477 544.333 106.532 544.333 87.4855V33.4196H512.517V89.9234C512.517 106.125 518.107 119.661 528.679 129.082Z" fill="#FFD204"/>
<path d="M867.883 120.067H925.518L935.531 140.358H969.456L914.26 33.6735L914.133 33.4196H879.776L824.784 139.698L824.453 140.358H857.921L867.934 120.067H867.883ZM878.937 97.1863L896.701 61.1001L914.311 97.1863H878.937Z" fill="#FFD204"/>
<path d="M114.279 73.4674L155.752 124.283L155.905 124.461H157.836L199.462 73.4674V140.358H231.125V33.4196H197.581L157.633 84.0571L118.117 33.5974L117.99 33.4196H83.505V140.358H114.279V73.4674Z" fill="#FFD204"/>
<path d="M431.095 164.635H374.222V266.469H431.095C470.535 266.469 495.033 246.966 495.033 215.552C495.033 184.139 470.535 164.635 431.095 164.635ZM404.565 188.913H428.783C451.247 188.913 464.106 198.639 464.106 215.578C464.106 232.516 451.222 242.242 428.783 242.242H404.565V188.913Z" fill="#FFD204"/>
<path d="M917.056 199.553C917.056 178.019 899.293 164.635 870.729 164.635H799.422V266.469H829.612V234.598H858.684L885.24 266.317L885.367 266.469H920.766L890.856 231.932C907.755 226.802 917.056 215.324 917.056 199.553ZM829.459 187.897H868.544C880.64 187.897 886.281 191.783 886.281 200.138C886.281 208.492 880.64 212.378 868.544 212.378H829.459V187.897Z" fill="#FFD204"/>
<path d="M822.903 33.4196H792.129V97.5927L730.021 33.572L729.868 33.4196H696.502V140.358H727.251V71.3343L795 140.231L795.127 140.358H822.903V33.4196Z" fill="#FFD204"/>
<path d="M985.593 161.334C965.644 161.334 948.999 166.235 937.411 175.504C925.594 184.977 919.343 198.842 919.343 215.578C919.343 232.313 925.594 246.153 937.411 255.651C948.999 264.92 965.644 269.821 985.593 269.821C1005.54 269.821 1022.21 264.92 1033.83 255.651C1045.69 246.179 1051.97 232.313 1051.97 215.578C1051.97 182.133 1026.53 161.334 985.568 161.334H985.593ZM985.593 186.17C1007.8 186.17 1021.07 197.166 1021.07 215.578C1021.07 233.989 1007.8 244.985 985.593 244.985C963.383 244.985 950.117 233.989 950.117 215.578C950.117 197.166 963.383 186.17 985.593 186.17Z" fill="#FFD204"/>
<path d="M712.41 226.117H776.043V203.718H712.41V188.05H789.613V164.635H682.5V266.495H791.214V243.08H712.41V226.117Z" fill="#FFD204"/>
<path d="M533.736 164.635H503.393V266.469H533.736V164.635Z" fill="#FFD204"/>
<path d="M505.579 86.9014C505.579 69.3535 498.997 54.8021 486.52 44.8473C474.322 35.1211 456.813 29.9659 435.873 29.9659C414.933 29.9659 397.449 35.1211 385.277 44.8473C372.85 54.8021 366.294 69.3535 366.294 86.9014C366.294 104.449 372.85 119.026 385.277 128.955C397.424 138.682 414.933 143.837 435.873 143.837C447.232 143.837 457.778 142.288 467.257 139.215L483.572 156.585L498.972 143.583L485.808 129.514C498.768 119.458 505.604 104.729 505.604 86.9014H505.579ZM449.24 90.2027L433.713 103.357L446.368 116.893C443.319 117.502 439.863 117.782 435.873 117.782C412.519 117.782 398.593 106.227 398.593 86.876C398.593 67.525 412.544 55.9703 435.873 55.9703C459.201 55.9703 473.153 67.525 473.153 86.876C473.153 95.3325 470.484 102.494 465.427 107.573L449.519 90.5075L449.214 90.2027H449.24Z" fill="#FFD204"/>
<path d="M276.105 120.067H333.741L343.753 140.358H377.678L322.483 33.6735L322.356 33.4196H287.998L233.006 139.698L232.676 140.358H266.144L276.156 120.067H276.105ZM287.16 97.1863L304.923 61.1001L322.534 97.1863H287.16Z" fill="#FFD204"/>
<path d="M681.483 33.4196H649.667V140.358H681.483V33.4196Z" fill="#FFD204"/>
<path d="M639.045 225.71L579.936 164.788L579.808 164.635H547.992V266.495H577.318V200.798L641.789 266.342L641.916 266.495H668.371V164.635H639.045V225.71Z" fill="#FFD204"/>
<path d="M314.148 0L292.979 22.5507L321.009 22.6269H321.136L343.143 0H314.148Z" fill="#FFD204"/>
<path d="M1075.17 148.56C1078.4 151.786 1080 155.646 1080 160.191C1080 164.737 1078.35 168.8 1075.07 172C1071.87 175.098 1068.03 176.647 1063.53 176.647C1059.03 176.647 1054.99 175.073 1051.82 171.898C1048.64 168.724 1047.07 164.839 1047.07 160.191C1047.07 155.544 1048.77 151.379 1052.2 148.205C1055.43 145.234 1059.19 143.735 1063.53 143.735C1067.88 143.735 1071.94 145.335 1075.17 148.56ZM1063.53 147.164C1059.92 147.164 1056.82 148.484 1054.28 151.1C1051.77 153.665 1050.52 156.687 1050.52 160.217C1050.52 163.747 1051.79 166.946 1054.33 169.511C1056.87 172.051 1059.92 173.321 1063.51 173.321C1067.09 173.321 1070.14 172.051 1072.68 169.486C1075.22 166.921 1076.49 163.823 1076.49 160.217C1076.49 156.611 1075.22 153.69 1072.71 151.1C1070.17 148.484 1067.09 147.164 1063.53 147.164ZM1061.19 162.782V168.953H1056.62V151.506C1057.71 151.506 1059.31 151.506 1061.47 151.506C1063.63 151.506 1064.83 151.506 1065.08 151.532C1066.46 151.633 1067.6 151.938 1068.51 152.421C1070.06 153.284 1070.85 154.655 1070.85 156.585C1070.85 158.058 1070.44 159.099 1069.63 159.76C1068.82 160.42 1067.8 160.801 1066.61 160.928C1067.7 161.156 1068.54 161.487 1069.07 161.944C1070.09 162.756 1070.62 164.077 1070.62 165.854V167.404C1070.62 167.581 1070.62 167.734 1070.65 167.911C1070.67 168.089 1070.7 168.242 1070.78 168.419L1070.93 168.902H1066.58C1066.43 168.343 1066.35 167.556 1066.3 166.489C1066.25 165.423 1066.18 164.737 1066.02 164.356C1065.79 163.747 1065.36 163.315 1064.75 163.086C1064.42 162.934 1063.89 162.858 1063.2 162.807L1062.19 162.731H1061.22L1061.19 162.782ZM1062.97 159.633C1064.04 159.633 1064.88 159.43 1065.46 158.998C1066.07 158.566 1066.35 157.88 1066.35 156.915C1066.35 155.95 1065.9 155.29 1064.96 154.935C1064.32 154.681 1063.46 154.579 1062.31 154.579H1061.19V159.633H1062.97Z" fill="#FFD204"/>
</svg>
